<svg version="1.1" preserveAspectRatio="none" xmlns="http://www.w3.org/2000/svg" width="500" height="500" viewBox="0 0 500 500"><rect width="100%" height="100%" fill="#010506" fill-opacity="1"/><svg viewBox="98.1476 112.6954 308.1145 259.7592" width="417" height="351.55627664390994" x="41.5px" y="74.2219px" xmlns="http://www.w3.org/2000/svg" xmlns:xlink="http://www.w3.org/1999/xlink" preserveAspectRatio="none"><defs></defs><style>.aD6z1nYkhcolor495a055b-5e1b-4dc4-8837-ebe79a7bfa94 {fill:#EEF8F7;fill-opacity:1;}.aN3vR-uBQEcolor495a055b-5e1b-4dc4-8837-ebe79a7bfa94 {fill:#EEF8F7;fill-opacity:1;}.aN3vR-uBQEstrokeColor-str495a055b-5e1b-4dc4-8837-ebe79a7bfa94 {stroke:#FAAB05;stroke-opacity:1;}.atvuQ2pu-ucolors-0495a055b-5e1b-4dc4-8837-ebe79a7bfa94 {fill:#E35F21;fill-opacity:1;}.atvuQ2pu-ucolors-1495a055b-5e1b-4dc4-8837-ebe79a7bfa94 {fill:#EEF8F7;fill-opacity:1;}.atvuQ2pu-ucolors-2495a055b-5e1b-4dc4-8837-ebe79a7bfa94 {fill:#FAAB05;fill-opacity:1;}.atvuQ2pu-ucolors-3495a055b-5e1b-4dc4-8837-ebe79a7bfa94 {fill:#4D4D4D;fill-opacity:1;}.atvuQ2pu-ucolors-4495a055b-5e1b-4dc4-8837-ebe79a7bfa94 {fill:#6B6B6A;fill-opacity:1;}.atvuQ2pu-ucolors-5495a055b-5e1b-4dc4-8837-ebe79a7bfa94 {fill:#9E9E9E;fill-opacity:1;}.atvuQ2pu-ucolors-6495a055b-5e1b-4dc4-8837-ebe79a7bfa94 {fill:#FFD647;fill-opacity:1;}.atvuQ2pu-ucolors-7495a055b-5e1b-4dc4-8837-ebe79a7bfa94 {fill:#8C0303;fill-opacity:1;}.aU8uwfuRwCcolors-0495a055b-5e1b-4dc4-8837-ebe79a7bfa94 {fill:#E35F21;fill-opacity:1;}.aU8uwfuRwCcolors-1495a055b-5e1b-4dc4-8837-ebe79a7bfa94 {fill:#EEF8F7;fill-opacity:1;}.aU8uwfuRwCcolors-2495a055b-5e1b-4dc4-8837-ebe79a7bfa94 {fill:#FAAB05;fill-opacity:1;}.aU8uwfuRwCcolors-3495a055b-5e1b-4dc4-8837-ebe79a7bfa94 {fill:#4D4D4D;fill-opacity:1;}.aU8uwfuRwCcolors-4495a055b-5e1b-4dc4-8837-ebe79a7bfa94 {fill:#6B6B6A;fill-opacity:1;}.aU8uwfuRwCcolors-5495a055b-5e1b-4dc4-8837-ebe79a7bfa94 {fill:#9E9E9E;fill-opacity:1;}.aU8uwfuRwCcolors-6495a055b-5e1b-4dc4-8837-ebe79a7bfa94 {fill:#FFD647;fill-opacity:1;}.aU8uwfuRwCcolors-7495a055b-5e1b-4dc4-8837-ebe79a7bfa94 {fill:#8C0303;fill-opacity:1;}.icon3-str495a055b-5e1b-4dc4-8837-ebe79a7bfa94 {stroke:#FAAB05;stroke-opacity:1;}</style><g opacity="1" transform="rotate(0 98.1476 339.8998)">
<svg width="129.3104" height="20.0278" x="98.1476" y="339.8998" version="1.1" preserveAspectRatio="none" viewBox="1.2 -18.88 125 19.36">
  <g transform="matrix(1 0 0 1 0 0)" class="aD6z1nYkhcolor495a055b-5e1b-4dc4-8837-ebe79a7bfa94"><path id="id-495a055b-5e1b-4dc4-8837-ebe79a7bfa94D6z1nYkh7" d="M1.20-9.20L1.20-9.20Q1.20-13.92 3.96-16.36Q6.72-18.80 10.98-18.80Q15.24-18.80 17.32-16.66Q19.40-14.52 18.80-12.24L18.80-12.24Q18.48-11 17.46-10.42Q16.44-9.84 15.24-10.12L15.24-10.12Q12.72-10.72 12.72-13.04L12.72-13.04Q12.72-13.64 12.86-14.86Q13-16.08 12.96-16.64Q12.92-17.20 12.72-17.52L12.72-17.52Q12.32-18.20 10.84-18.04L10.84-18.04Q7.24-17.48 7.24-9.22Q7.24-0.96 13.12-0.96L13.12-0.96Q14.48-0.96 15.88-1.68Q17.28-2.40 17.96-3.40L17.96-3.40L18.52-3Q17.60-1.48 15.76-0.56Q13.92 0.36 11.64 0.36L11.64 0.36Q1.20 0.36 1.20-9.20Z M28.32-2.42Q29.20-0.40 31.36-0.40Q33.52-0.40 34.44-2.44Q35.36-4.48 35.36-9.18Q35.36-13.88 34.44-15.94Q33.52-18 31.36-18Q29.20-18 28.32-15.94Q27.44-13.88 27.44-9.16Q27.44-4.44 28.32-2.42ZM31.28 0.40Q27.48 0.40 24.40-2.08Q21.32-4.56 21.32-9.12L21.32-9.12Q21.32-11.56 22.22-13.48Q23.12-15.40 24.62-16.52Q26.12-17.64 27.84-18.22Q29.56-18.80 31.36-18.80Q33.16-18.80 34.90-18.22Q36.64-17.64 38.14-16.52Q39.64-15.40 40.56-13.48Q41.48-11.56 41.48-9.16Q41.48-6.76 40.56-4.88Q39.64-3 38.12-1.88L38.12-1.88Q35.08 0.40 31.28 0.40Z M66.08 0L58.08 0L58.08-2.12Q57.32-1.04 55.70-0.30Q54.08 0.44 52.20 0.44L52.20 0.44Q45.08 0.44 45.08-7.28L45.08-7.28L45.08-17.60L43.08-17.60L43.08-18.40L51.08-18.40L51.08-6.40Q51.08-3.56 51.92-2.36Q52.76-1.16 54.44-1.16L54.44-1.16Q56.68-1.16 58.08-3.56L58.08-3.56L58.08-17.60L56.08-17.60L56.08-18.40L64.08-18.40L64.08-0.80L66.08-0.80L66.08 0Z M78.88-0.80L78.88 0L68.88 0L68.88-0.80L70.88-0.80L70.88-17.60L68.88-17.60L68.88-18.40L76.88-18.40L76.88-13.64Q77.24-15.60 78.18-16.84Q79.12-18.08 80.26-18.48Q81.40-18.88 82.46-18.88Q83.52-18.88 84.50-18.50Q85.48-18.12 85.96-16.98Q86.44-15.84 86-14.70Q85.56-13.56 84.46-13.08Q83.36-12.60 82.44-12.96Q81.52-13.32 81.12-13.94Q80.72-14.56 80.56-15.12L80.56-15.12Q80.16-16.60 79.48-16.60L79.48-16.60Q78.72-16.60 77.80-13.98Q76.88-11.36 76.88-8.44L76.88-8.44L76.88-0.80L78.88-0.80Z M97-0.32L97-0.32Q101.16-0.32 101.16-2.60L101.16-2.60Q101.16-3.88 99.72-4.70Q98.28-5.52 96.24-6.04Q94.20-6.56 92.22-7.24Q90.24-7.92 88.94-9.40Q87.64-10.88 87.88-13.28Q88.12-15.68 90.34-17.24Q92.56-18.80 95.82-18.80Q99.08-18.80 101.08-17.76Q103.08-16.72 103.32-14.96L103.32-14.96Q103.48-13.88 102.98-12.96Q102.48-12.04 101.34-12Q100.20-11.96 99.46-12.60Q98.72-13.24 98.76-14.08Q98.80-14.92 99.40-15.58Q100-16.24 100-16.64L100-16.64Q100-17.32 98.70-17.66Q97.40-18 95.70-18Q94-18 92.92-17.24Q91.84-16.48 91.84-15.36Q91.84-14.24 93.18-13.44Q94.52-12.64 96.44-12.14Q98.36-11.64 100.26-11.02Q102.16-10.40 103.50-9.04Q104.84-7.68 104.84-5.60L104.84-5.60Q104.84-2.84 102.88-1.18Q100.92 0.48 96.96 0.48Q93 0.48 90.54-0.72Q88.08-1.92 87.84-3.80L87.84-3.80Q87.68-4.88 88.20-5.80Q88.72-6.72 89.84-6.76Q90.96-6.80 91.70-6.16Q92.44-5.52 92.40-4.68Q92.36-3.84 91.76-3.18Q91.16-2.52 91.16-2.12L91.16-2.12Q91.16-1.32 93.02-0.82Q94.88-0.32 97-0.32Z M124.88-8L124.88-8L112.80-8Q113.20-0.96 118.28-0.96L118.28-0.96Q119.64-0.96 121.38-1.60Q123.12-2.24 123.92-3.40L123.92-3.40L124.48-3Q123.60-1.52 121.48-0.56Q119.36 0.40 117.26 0.40Q115.16 0.40 113.48-0.02Q111.80-0.44 110.20-1.44Q108.60-2.44 107.70-4.44Q106.80-6.44 106.80-9.28L106.80-9.28Q106.80-14.12 109.48-16.46Q112.16-18.80 115.98-18.80Q119.80-18.80 122.34-16.24Q124.88-13.68 124.88-8ZM112.76-9.24L112.76-8.80L119.28-8.80Q119.28-12.48 118.50-15.24Q117.72-18 116-18Q114.28-18 113.52-15.34Q112.76-12.68 112.76-9.24L112.76-9.24Z"/></g>
</svg>
</g><g opacity="1" transform="rotate(0 272.5421 332.0937)">
<svg width="133.72" height="35.64" x="272.5421" y="332.0937" version="1.1" preserveAspectRatio="none" viewBox="1.2 -26.8 133.72000000000003 35.64">
  <g transform="matrix(1 0 0 1 0 0)" class="aN3vR-uBQEcolor495a055b-5e1b-4dc4-8837-ebe79a7bfa94"><path id="id-495a055b-5e1b-4dc4-8837-ebe79a7bfa94N3vR-uBQE6" d="M1.20-9.20L1.20-9.20Q1.20-13.92 3.96-16.36Q6.72-18.80 10.98-18.80Q15.24-18.80 17.32-16.66Q19.40-14.52 18.80-12.24L18.80-12.24Q18.48-11 17.46-10.42Q16.44-9.84 15.24-10.12L15.24-10.12Q12.72-10.72 12.72-13.04L12.72-13.04Q12.72-13.64 12.86-14.86Q13-16.08 12.96-16.64Q12.92-17.20 12.72-17.52L12.72-17.52Q12.32-18.20 10.84-18.04L10.84-18.04Q7.24-17.48 7.24-9.22Q7.24-0.96 13.12-0.96L13.12-0.96Q14.48-0.96 15.88-1.68Q17.28-2.40 17.96-3.40L17.96-3.40L18.52-3Q17.60-1.48 15.76-0.56Q13.92 0.36 11.64 0.36L11.64 0.36Q1.20 0.36 1.20-9.20Z M42.72-11.12L42.72-0.80L44.72-0.80L44.72 0L34.72 0L34.72-0.80L36.72-0.80L36.72-12Q36.72-14.84 35.88-16.04Q35.04-17.24 33.36-17.24L33.36-17.24Q31.08-17.24 29.72-14.84L29.72-14.84L29.72-0.80L31.72-0.80L31.72 0L21.72 0L21.72-0.80L23.72-0.80L23.72-26L21.72-26L21.72-26.80L29.72-26.80L29.72-16.32Q30.48-17.40 32.08-18.12Q33.68-18.84 35.60-18.84L35.60-18.84Q42.72-18.84 42.72-11.12L42.72-11.12Z M66.92-0.80Q66.52-0.40 65.40-0.10Q64.28 0.20 62.80 0.20L62.80 0.20Q59.52 0.20 58.68-1.76L58.68-1.76Q56.68 0.32 52.56 0.32L52.56 0.32Q50.36 0.32 48.94-0.70Q47.52-1.72 47.52-3.72L47.52-3.72Q47.52-6.40 49.60-7.86Q51.68-9.32 56.88-9.92L56.88-9.92L58.48-10.12L58.48-12.08Q58.48-15.56 57.96-16.76Q57.44-17.96 55.90-17.96Q54.36-17.96 53.92-17.54Q53.48-17.12 53.60-16.58Q53.72-16.04 54-15.16Q54.28-14.28 54.28-13.76L54.28-13.76Q54.28-12.52 53.42-11.66Q52.56-10.80 51.34-10.80Q50.12-10.80 49.24-11.66Q48.36-12.52 48.36-13.76L48.36-13.76Q48.36-15.80 50.46-17.26Q52.56-18.72 56.74-18.72Q60.92-18.72 62.70-17.08Q64.48-15.44 64.48-11.28L64.48-11.28L64.48-4.08Q64.48-1.96 65-1.42Q65.52-0.88 66.92-1.20L66.92-1.20L66.92-0.80ZM53.08-4.52Q53.28-3 54.20-2.18Q55.12-1.36 56.34-1.36Q57.56-1.36 58.48-2.56L58.48-2.56L58.48-9.36L57.04-9.16Q55.20-8.92 54.06-7.76Q52.92-6.60 53.08-4.52L53.08-4.52Z M90.32-11.12L90.32-0.80L92.32-0.80L92.32 0L82.32 0L82.32-0.80L84.32-0.80L84.32-12Q84.32-14.84 83.48-16.04Q82.64-17.24 80.96-17.24L80.96-17.24Q78.68-17.24 77.32-14.84L77.32-14.84L77.32-0.80L79.32-0.80L79.32 0L69.32 0L69.32-0.80L71.32-0.80L71.32-17.60L69.32-17.60L69.32-18.40L77.32-18.40L77.32-16.32Q78.08-17.36 79.70-18.10Q81.32-18.84 83.20-18.84L83.20-18.84Q90.32-18.84 90.32-11.12L90.32-11.12Z M99.92-3.72L99.92-3.72Q99.92-2.60 101.36-2.44L101.36-2.44L108.24-2.44Q111.80-2.44 113.20-0.92Q114.60 0.60 114.18 2.84Q113.76 5.08 111.44 6.96Q109.12 8.84 105.04 8.84L105.04 8.84Q97.56 8.84 95.44 6.64L95.44 6.64Q94.64 5.76 94.76 4.58Q94.88 3.40 95.64 2.66Q96.40 1.92 97.36 1.64L97.36 1.64Q96.08 0.56 96.08-1.04Q96.08-2.64 97.06-3.90Q98.04-5.16 99.32-5.92L99.32-5.92Q94.72-7.60 94.72-11.96L94.72-11.96Q94.72-15.20 97.70-16.98Q100.68-18.76 104.44-18.76L104.44-18.76Q106.24-18.76 108.04-18.20L108.04-18.20Q107.12-19.44 107.12-21.16Q107.12-22.88 108.30-24.02Q109.48-25.16 111.26-25.16Q113.04-25.16 113.94-24.22Q114.84-23.28 114.84-22.12Q114.84-20.96 114.14-20.16Q113.44-19.36 112.30-19.36Q111.16-19.36 110.48-20.12Q109.80-20.88 109.80-21.66Q109.80-22.44 110.10-23.02Q110.40-23.60 110.40-23.68L110.40-23.68Q110.28-24.32 109.60-24.04Q108.92-23.76 108.42-22.90Q107.92-22.04 107.92-20.92L107.92-20.92Q107.92-18.72 109.88-17.40L109.88-17.40Q113.32-15.48 113.32-12.08Q113.32-8.68 110.48-6.94Q107.64-5.20 103.76-5.20L103.76-5.20Q101.88-5.20 100.44-5.60L100.44-5.60Q99.92-4.72 99.92-3.72ZM107.32-12.06Q107.32-15.48 106.52-16.72Q105.72-17.96 104.14-17.96Q102.56-17.96 101.84-16.70Q101.12-15.44 101.12-12.08Q101.12-8.72 101.88-7.36Q102.64-6 104.18-6Q105.72-6 106.52-7.32Q107.32-8.64 107.32-12.06ZM108 2.76L108 2.76L101.28 2.76Q99.36 2.76 98.04 2.08L98.04 2.08Q97.48 4.96 99.50 6.50Q101.52 8.04 105.04 8.04Q108.56 8.04 110.88 6.28L110.88 6.28Q111.96 5.48 112.08 4.68Q112.20 3.88 111.16 3.32Q110.12 2.76 108 2.76Z M134.92-8L134.92-8L122.84-8Q123.24-0.96 128.32-0.96L128.32-0.96Q129.68-0.96 131.42-1.60Q133.16-2.24 133.96-3.40L133.96-3.40L134.52-3Q133.64-1.52 131.52-0.56Q129.40 0.40 127.30 0.40Q125.20 0.40 123.52-0.02Q121.84-0.44 120.24-1.44Q118.64-2.44 117.74-4.44Q116.84-6.44 116.84-9.28L116.84-9.28Q116.84-14.12 119.52-16.46Q122.20-18.80 126.02-18.80Q129.84-18.80 132.38-16.24Q134.92-13.68 134.92-8ZM122.80-9.24L122.80-8.80L129.32-8.80Q129.32-12.48 128.54-15.24Q127.76-18 126.04-18Q124.32-18 123.56-15.34Q122.80-12.68 122.80-9.24L122.80-9.24Z"/></g>
</svg>
</g><g opacity="1" transform="rotate(0 227.458 327.3728)">
<svg width="45.0841" height="45.0818" x="227.458" y="327.3728" version="1.1" preserveAspectRatio="none" viewBox="0.9997694492340088 0.9994995594024658 30.001480102539062 30">
  <g transform="matrix(1 0 0 1 0 0)" class="aU8uwfuRwCcolors-0495a055b-5e1b-4dc4-8837-ebe79a7bfa94"><path fill-rule="evenodd" clip-rule="evenodd" d="M24.497,16l5.919,5.922c0.779,0.78,0.779,2.048,0,2.831l-5.66,5.66  c-0.779,0.782-2.047,0.782-2.829,0l-5.919-5.923l-5.917,5.923c-0.781,0.782-2.049,0.782-2.829,0l-5.66-5.66  c-0.782-0.783-0.813-2.019-0.031-2.801L7.521,16l-5.918-5.922c-0.782-0.782-0.782-2.048,0-2.831l5.66-5.661  c0.78-0.782,2.048-0.782,2.829,0l5.917,5.92l5.919-5.92c0.782-0.782,2.05-0.782,2.829,0l5.66,5.661c0.779,0.783,0.779,2.048,0,2.831  L24.497,16L24.497,16z M28.294,7.955l-4.245-4.246c-0.39-0.392-1.022-0.392-1.415,0l-5.212,5.212c-0.779,0.782-2.047,0.782-2.829,0  L9.384,3.709c-0.392-0.392-1.025-0.392-1.415,0L3.724,7.955c-0.39,0.39-0.39,1.025,0,1.415l5.211,5.215l0,0  c0.783,0.782,0.783,2.048,0,2.829l0,0l-5.211,5.215c-0.39,0.391-0.39,1.023,0,1.416l4.246,4.245c0.39,0.391,1.022,0.391,1.415,0  l5.209-5.215c0.782-0.78,2.049-0.78,2.829,0l5.212,5.215c0.393,0.391,1.025,0.391,1.415,0l4.245-4.245  c0.39-0.393,0.39-1.025,0-1.416l-5.212-5.215l0,0c-0.781-0.781-0.781-2.047,0-2.829l0,0l5.212-5.215  C28.684,8.98,28.684,8.345,28.294,7.955L28.294,7.955z"></path></g>
</svg>
</g><g opacity="1" transform="rotate(0 155.8567 112.6954)">
<svg width="177.2631" height="202.5879" x="155.8567" y="112.6954" version="1.1" preserveAspectRatio="none" viewBox="30.000621795654297 19.998001098632812 140.0006103515625 160.0019989013672">
  <g transform="matrix(1 0 0 1 0 0)" ><g><path d="M166.182 180H33.818a3.822 3.822 0 0 1-2.755-1.173 3.801 3.801 0 0 1-1.059-2.796l5.091-121.905a3.815 3.815 0 0 1 3.815-3.651h122.182a3.815 3.815 0 0 1 3.815 3.651l5.091 121.905a3.807 3.807 0 0 1-1.06 2.796 3.826 3.826 0 0 1-2.756 1.173zm-128.383-7.619h124.403l-4.773-114.286H42.571l-4.772 114.286z" data-color="1" class="atvuQ2pu-ucolors-0495a055b-5e1b-4dc4-8837-ebe79a7bfa94"></path><path d="M135.636 68.254a3.813 3.813 0 0 1-3.818-3.81V54.286c0-2.104 1.709-3.81 3.818-3.81s3.818 1.705 3.818 3.81v10.159a3.813 3.813 0 0 1-3.818 3.809z" data-color="1" class="atvuQ2pu-ucolors-0495a055b-5e1b-4dc4-8837-ebe79a7bfa94"></path><path d="M105.091 27.619H94.909c-2.109 0-3.818-1.705-3.818-3.81S92.8 20 94.909 20h10.182c2.109 0 3.818 1.705 3.818 3.81s-1.709 3.809-3.818 3.809z" data-color="1" class="atvuQ2pu-ucolors-0495a055b-5e1b-4dc4-8837-ebe79a7bfa94"></path><path d="M64.363 68.254a3.813 3.813 0 0 1-3.818-3.81V54.286a3.814 3.814 0 0 1 3.818-3.81 3.813 3.813 0 0 1 3.818 3.81v10.159a3.812 3.812 0 0 1-3.818 3.809z" data-color="1" class="atvuQ2pu-ucolors-0495a055b-5e1b-4dc4-8837-ebe79a7bfa94"></path><path d="M164.272 149.524H35.727a3.813 3.813 0 0 1-3.818-3.81 3.814 3.814 0 0 1 3.818-3.81h128.545a3.813 3.813 0 0 1 3.818 3.81 3.813 3.813 0 0 1-3.818 3.81z" data-color="1" class="atvuQ2pu-ucolors-0495a055b-5e1b-4dc4-8837-ebe79a7bfa94"></path><path d="M64.363 58.095a3.813 3.813 0 0 1-3.818-3.81C60.545 35.38 75.961 20 94.909 20c2.109 0 3.818 1.705 3.818 3.81s-1.709 3.81-3.818 3.81c-14.737 0-26.727 11.963-26.727 26.667a3.814 3.814 0 0 1-3.819 3.808z" data-color="1" class="atvuQ2pu-ucolors-0495a055b-5e1b-4dc4-8837-ebe79a7bfa94"></path><path d="M135.636 58.095a3.813 3.813 0 0 1-3.818-3.81c0-14.704-11.989-26.667-26.727-26.667-2.109 0-3.818-1.705-3.818-3.81s1.709-3.81 3.818-3.81c18.948 0 34.364 15.38 34.364 34.286a3.815 3.815 0 0 1-3.819 3.811z" data-color="1" class="atvuQ2pu-ucolors-0495a055b-5e1b-4dc4-8837-ebe79a7bfa94"></path></g></g>
</svg>
</g></svg></svg>